<?xml version="1.0" standalone="no"?>
<!DOCTYPE svg PUBLIC "-//W3C//DTD SVG 20010904//EN"
 "http://www.w3.org/TR/2001/REC-SVG-20010904/DTD/svg10.dtd">
<svg version="1.0" xmlns="http://www.w3.org/2000/svg"
 width="700.000000pt" height="700.000000pt" viewBox="0 0 700.000000 700.000000"
 preserveAspectRatio="xMidYMid meet">
<metadata>
Created by potrace 1.14, written by Peter Selinger 2001-2017
</metadata>
<g transform="translate(0.000000,700.000000) scale(0.100000,-0.100000)"
fill="#000000" stroke="none">
<path d="M3165 6819 c-49 -5 -110 -13 -135 -18 -25 -6 -65 -13 -90 -16 -25 -3
-88 -15 -140 -27 -459 -100 -904 -309 -1288 -605 -273 -210 -535 -491 -726
-777 -432 -649 -623 -1398 -557 -2183 80 -942 564 -1815 1326 -2387 243 -182
495 -325 735 -415 47 -17 94 -36 105 -41 60 -29 358 -112 490 -137 254 -47
630 -66 890 -44 639 53 1243 297 1751 705 557 448 958 1064 1137 1746 84 321
99 432 104 798 3 198 1 353 -6 420 -82 784 -422 1496 -972 2039 -287 283 -498
436 -832 607 -241 123 -487 213 -740 270 -236 54 -364 68 -667 71 -162 2 -335
-1 -385 -6z m387 -137 c58 -120 159 -249 253 -320 39 -30 116 -76 173 -103
196 -95 281 -159 336 -254 56 -95 71 -242 36 -367 -11 -39 -22 -73 -25 -76 -2
-3 -31 4 -62 16 -32 11 -85 28 -118 37 -33 8 -107 28 -165 44 -123 32 -163 56
-246 143 -83 86 -146 187 -193 305 -22 54 -43 98 -47 98 -4 0 -17 -29 -29 -65
-29 -88 -73 -172 -130 -248 -57 -75 -208 -212 -235 -212 -34 0 -220 -50 -319
-86 -52 -19 -100 -33 -106 -30 -14 5 -42 106 -51 178 -14 122 37 256 135 353
53 52 172 135 194 135 21 0 175 85 226 124 113 87 210 213 279 359 18 37 35
67 39 67 5 0 29 -44 55 -98z m-1207 -830 c105 -32 186 -96 251 -198 19 -30 37
-66 40 -81 5 -27 0 -31 -117 -93 -67 -36 -158 -89 -202 -117 -45 -29 -96 -56
-114 -59 -18 -3 -95 -4 -171 -1 -146 5 -222 23 -343 80 -53 25 -79 33 -79 22
0 -2 13 -32 29 -67 77 -166 108 -364 81 -509 -7 -35 -29 -83 -64 -139 -29 -47
-73 -125 -98 -175 -25 -49 -52 -105 -62 -123 l-17 -33 -62 33 c-85 45 -166
127 -208 213 -31 64 -34 78 -37 180 -3 122 1 144 69 325 l43 115 0 190 1 190
-37 105 c-20 58 -35 107 -33 109 3 2 37 -8 77 -22 174 -63 366 -76 521 -36 45
11 87 24 92 28 14 10 99 43 165 62 77 23 201 23 275 1z m2570 -1 c39 -11 99
-31 135 -45 117 -48 215 -67 335 -67 113 0 174 11 314 57 41 13 76 22 79 20 2
-3 -3 -24 -11 -48 -55 -156 -71 -261 -64 -413 6 -101 41 -255 67 -290 4 -5 18
-41 31 -80 33 -98 33 -274 0 -354 -27 -67 -84 -139 -148 -190 -46 -37 -132
-86 -138 -79 -2 2 -34 64 -72 138 -38 74 -90 169 -116 210 -40 63 -49 88 -59
157 -19 134 12 304 91 486 12 27 21 53 21 57 0 8 -40 -8 -135 -51 -80 -36
-157 -51 -285 -56 -82 -3 -151 -1 -175 6 -22 6 -83 39 -136 73 -52 35 -141 85
-197 113 -56 27 -102 54 -102 59 0 5 17 39 37 75 41 73 120 159 174 187 101
53 236 67 354 35z m-1130 -296 c107 -16 257 -50 290 -65 11 -5 40 -15 65 -21
25 -7 50 -16 55 -19 6 -4 27 -13 48 -20 71 -22 259 -120 359 -186 133 -88 203
-146 333 -278 163 -164 276 -319 374 -514 114 -225 164 -382 213 -662 14 -82
15 -505 1 -585 -35 -199 -53 -270 -110 -430 -39 -110 -161 -365 -174 -365 -5
0 -9 -5 -9 -10 0 -14 -73 -121 -144 -210 -119 -151 -312 -330 -461 -429 -78
-53 -244 -144 -315 -174 -36 -16 -72 -31 -80 -36 -14 -7 -127 -43 -235 -75
-191 -56 -592 -74 -815 -36 -362 62 -678 204 -964 434 -156 127 -325 317 -440
496 -50 78 -186 349 -186 370 0 7 -6 26 -14 43 -18 39 -59 179 -80 272 -9 39
-23 153 -32 255 -13 154 -14 210 -4 335 12 150 16 179 43 310 31 145 85 298
162 460 262 545 762 954 1345 1101 243 61 538 76 775 39z m-2401 -1190 c33 -9
65 -20 72 -26 8 -7 0 -50 -36 -172 -26 -89 -50 -180 -54 -202 -33 -175 -248
-366 -519 -459 -22 -7 -13 -26 11 -26 36 0 263 -126 325 -180 115 -100 154
-162 182 -288 18 -80 38 -151 72 -250 13 -41 23 -83 21 -94 -8 -55 -236 -80
-348 -39 -82 31 -146 79 -200 150 -46 62 -63 91 -146 265 -46 96 -132 207
-215 276 -73 61 -112 87 -208 135 -39 20 -71 40 -71 44 0 4 30 21 66 36 84 36
222 134 285 203 61 67 118 150 148 217 74 166 115 235 168 289 128 130 268
168 447 121z m4479 -1 c140 -34 243 -142 336 -354 98 -225 238 -369 464 -479
37 -18 67 -34 67 -36 0 -2 -39 -23 -87 -46 -197 -97 -325 -225 -419 -419 -87
-181 -96 -198 -142 -256 -88 -112 -204 -168 -347 -167 -74 0 -171 22 -201 45
-8 6 -4 27 14 76 31 85 60 186 79 282 8 41 24 94 35 117 42 90 208 239 318
286 95 40 170 79 170 87 0 5 -12 13 -27 16 -58 13 -217 101 -291 159 -134 106
-175 167 -202 301 -15 76 -52 201 -83 286 -29 81 -28 83 69 103 125 25 139 25
247 -1z m-4314 -1870 c32 -65 81 -154 109 -197 55 -84 72 -141 72 -242 0 -137
-41 -308 -102 -428 -11 -22 -17 -41 -14 -44 3 -3 38 9 78 27 135 60 238 83
378 84 141 0 149 -2 279 -88 40 -26 123 -73 183 -103 104 -52 109 -56 103 -81
-16 -65 -109 -186 -177 -228 -80 -51 -146 -69 -248 -69 -88 1 -106 4 -245 53
-155 54 -277 82 -355 82 -65 0 -234 -34 -314 -64 -39 -13 -73 -23 -77 -20 -8
4 0 43 11 59 5 6 19 48 31 95 21 74 24 107 24 255 l0 170 -55 155 -55 155 0
130 c0 124 1 133 30 189 41 83 133 178 208 216 33 17 65 26 69 22 5 -5 35 -62
67 -128z m4064 87 c199 -137 260 -340 176 -590 -87 -259 -82 -232 -83 -411 0
-153 2 -172 28 -260 16 -52 33 -101 38 -107 6 -7 8 -19 5 -27 -5 -13 -19 -11
-89 13 -46 15 -135 36 -200 45 -108 15 -123 16 -218 1 -95 -16 -137 -28 -305
-90 -191 -70 -390 -28 -511 109 -42 48 -104 152 -104 175 0 6 15 17 33 24 17
8 93 49 167 92 265 154 228 140 370 140 155 0 282 -32 417 -102 18 -10 35 -15
38 -12 2 3 -7 34 -21 70 -86 216 -110 393 -73 541 5 21 32 72 60 114 28 42 73
122 100 177 70 145 66 140 100 133 17 -3 49 -19 72 -35z m-2883 -1164 c38 -20
274 -90 345 -103 106 -19 256 -173 345 -355 22 -45 40 -87 40 -93 0 -6 9 -29
19 -51 l18 -40 11 25 c6 14 25 61 42 105 57 146 192 320 294 379 22 14 64 29
91 34 101 19 286 74 348 103 38 17 50 3 71 -86 42 -181 -7 -345 -139 -462 -55
-49 -66 -56 -235 -138 -123 -60 -202 -118 -281 -203 -65 -71 -141 -190 -175
-274 -10 -27 -22 -48 -25 -48 -4 0 -26 37 -49 82 -66 127 -126 212 -202 283
-89 84 -120 104 -320 200 -143 69 -234 161 -284 290 -26 69 -26 206 1 298 21
73 34 80 85 54z"/>
<path d="M3241 5450 c-188 -26 -380 -85 -566 -174 -203 -97 -365 -210 -517
-360 -470 -464 -680 -1115 -567 -1764 108 -621 493 -1142 1054 -1424 210 -106
420 -165 688 -194 149 -16 169 -16 325 0 390 40 681 151 977 372 411 306 686
759 772 1269 26 155 25 486 -1 640 -73 430 -261 792 -574 1102 -261 258 -579
428 -952 510 -101 22 -144 25 -345 28 -126 2 -259 0 -294 -5z m371 -430 c192
-334 391 -676 414 -712 l24 -38 470 0 c266 0 470 -4 470 -9 0 -5 -75 -139
-167 -297 -252 -438 -293 -511 -293 -523 0 -6 103 -190 230 -409 126 -219 232
-406 236 -415 6 -16 -28 -17 -474 -17 -423 0 -481 -2 -493 -16 -7 -8 -126
-211 -264 -451 -138 -239 -255 -435 -260 -434 -6 1 -126 204 -269 452 l-259
449 -483 0 c-266 0 -484 2 -484 5 0 4 106 190 235 414 129 224 235 415 235
425 0 14 -22 54 -130 241 -219 377 -330 571 -330 577 0 5 211 8 468 8 434 0
470 1 484 18 15 18 19 24 133 222 40 69 98 170 130 225 32 55 74 127 93 160
19 33 45 78 58 100 13 22 45 77 71 123 26 45 50 79 53 75 4 -5 50 -82 102
-173z"/>
<path d="M3482 4928 c-11 -18 -97 -168 -192 -333 -95 -165 -214 -372 -265
-460 -51 -88 -127 -221 -170 -295 -82 -143 -579 -1005 -621 -1077 l-25 -43
1296 0 1296 0 -12 23 c-7 12 -138 240 -292 507 -329 569 -413 716 -731 1270
-132 228 -244 421 -251 428 -10 11 -16 8 -33 -20z m123 -523 c49 -88 120 -218
158 -290 39 -71 78 -143 88 -160 10 -16 37 -66 60 -110 37 -71 81 -151 312
-570 96 -175 167 -312 167 -324 0 -8 -240 -11 -885 -11 -658 0 -885 3 -885 11
0 13 84 174 170 324 32 55 79 142 106 193 27 51 54 100 59 110 27 47 98 176
138 252 24 47 74 138 111 203 36 65 66 120 66 123 0 2 20 39 44 82 59 105 90
162 144 260 24 46 48 80 52 75 4 -4 47 -80 95 -168z"/>
<path d="M3491 4311 c-17 -31 -13 -41 14 -41 28 0 35 29 11 49 -12 10 -17 8
-25 -8z"/>
<path d="M3402 4148 c-23 -30 -111 -206 -105 -211 10 -11 423 -8 423 2 0 6
-26 57 -57 115 l-57 106 -97 0 c-65 0 -100 -4 -107 -12z"/>
<path d="M3217 3813 c-88 -157 -197 -366 -197 -380 0 -10 23 -58 51 -108 27
-49 71 -129 97 -177 l47 -88 291 0 291 0 28 53 c16 28 36 66 45 82 80 144 120
225 120 240 0 10 -17 50 -39 89 -21 39 -56 103 -76 141 -21 39 -49 89 -62 113
l-25 42 -283 0 c-156 0 -286 -3 -288 -7z m331 -253 c58 -54 24 -150 -53 -150
-70 0 -105 101 -53 150 28 26 78 26 106 0z"/>
<path d="M2887 3206 c-82 -150 -84 -146 68 -146 78 0 125 4 125 10 0 14 -123
240 -131 240 -3 0 -31 -47 -62 -104z"/>
<path d="M4030 3263 c-13 -27 -42 -78 -62 -115 -21 -37 -38 -72 -38 -78 0 -6
46 -10 125 -10 124 0 125 0 125 23 0 24 -106 227 -119 227 -3 0 -17 -21 -31
-47z"/>
<path d="M2214 4145 c9 -25 318 -559 331 -573 10 -11 25 10 78 103 l66 117
-32 61 c-17 34 -33 65 -35 70 -2 4 27 7 65 7 37 0 73 4 79 8 11 6 87 131 120
195 l15 27 -347 0 c-306 0 -345 -2 -340 -15z"/>
<path d="M4113 4153 c54 -97 123 -210 131 -215 6 -4 41 -8 79 -8 37 0 67 -2
67 -5 0 -3 -13 -29 -30 -58 -16 -30 -30 -62 -30 -72 0 -9 28 -66 62 -126 50
-87 65 -107 74 -97 7 7 72 117 145 243 178 311 189 329 189 338 0 4 -156 7
-346 7 -190 0 -343 -3 -341 -7z"/>
<path d="M3110 2593 c0 -18 385 -673 396 -673 11 0 394 651 394 671 0 5 -51 9
-114 9 l-114 0 -46 -80 c-25 -43 -46 -81 -46 -84 0 -2 -17 -34 -38 -70 l-38
-65 -43 82 c-24 45 -62 112 -83 150 l-39 67 -114 0 c-63 0 -115 -3 -115 -7z"/>
<path d="M3470 2592 c0 -4 7 -18 17 -31 l16 -24 19 23 c26 32 23 40 -17 40
-19 0 -35 -3 -35 -8z"/>
</g>
</svg>
